<svg width="114" height="25" viewBox="0 0 114 25" fill="none" xmlns="http://www.w3.org/2000/svg">
<g clip-path="url(#clip0)">
<path d="M0.643066 0.1875H23.3285C23.3285 8.15875 23.3285 16.1329 23.3285 24.1042H0.643066V0.1875ZM2.31373 3.94125C3.32575 8.80333 4.23317 13.6917 5.20843 18.5625C5.38652 19.1458 5.27627 19.9158 5.82468 20.3067C6.81408 20.47 7.82892 20.4292 8.8268 20.3592C9.36955 20.3767 9.49959 19.7175 9.59853 19.2946C10.2798 15.8267 11.0204 12.3704 11.6989 8.9025C11.7526 8.58167 11.8487 8.26958 11.9957 7.98083C12.8409 11.7025 13.5392 15.4563 14.325 19.1896C14.4324 19.5863 14.4551 20.0763 14.8339 20.3183C15.9137 20.4525 17.0218 20.4642 18.0989 20.3096C18.4861 20.0733 18.5059 19.5863 18.6049 19.1838C19.6028 14.1058 20.5328 9.0075 21.5872 3.94125C20.6346 3.94708 19.6847 3.94417 18.7349 3.94417C17.9773 8.36292 17.3695 12.8108 16.5328 17.215C15.5915 13.4788 14.9611 9.65208 14.1413 5.88083C13.9547 5.23625 14.0395 4.29708 13.3554 3.97042C12.5187 3.91792 11.6763 3.915 10.8395 3.97042C10.3646 4.01125 10.2572 4.59167 10.1639 4.97667C9.4063 8.71583 8.61196 12.4463 7.87132 16.1854C7.795 16.5325 7.68192 16.865 7.55472 17.1946C6.79429 12.7875 6.07345 8.36875 5.41762 3.94417C4.38299 3.94125 3.34836 3.94708 2.31373 3.94125Z" fill="black"/>
<path d="M23.3286 0.1875H45.802C45.802 8.15875 45.802 16.1329 45.802 24.1042H23.3286C23.3286 16.1329 23.3286 8.15875 23.3286 0.1875ZM29.084 3.78375C29.0727 4.76375 29.0727 5.74083 29.084 6.72083C30.3759 6.72958 31.6678 6.72375 32.9596 6.72375C32.954 10.3375 32.954 13.9542 32.9596 17.5679C31.6678 17.5679 30.3759 17.5621 29.084 17.5708C29.0727 18.5508 29.0727 19.5279 29.0868 20.5079C32.7391 20.5167 36.3914 20.5167 40.0437 20.5079C40.0579 19.5308 40.055 18.5508 40.0494 17.5738C38.7547 17.5621 37.4628 17.5679 36.1709 17.5679C36.1766 13.9542 36.1766 10.3375 36.1709 6.72375C37.4628 6.72375 38.7547 6.72958 40.0465 6.72083C40.0579 5.74083 40.0579 4.76083 40.0437 3.78375C36.3914 3.775 32.7391 3.775 29.084 3.78375Z" fill="white"/>
<path d="M45.802 0.1875H68.4875C68.4875 8.15875 68.4875 16.1329 68.4875 24.1042H45.802C45.802 16.1329 45.802 8.15875 45.802 0.1875ZM50.9271 3.94417C50.9271 9.41292 50.9271 14.8788 50.9271 20.3475C51.973 20.3475 53.0218 20.3475 54.0705 20.3475C54.0705 18.2096 54.0705 16.0688 54.0705 13.9308C55.7751 13.9367 57.4797 13.9221 59.1843 13.9338C59.8062 13.8725 60.5468 14.3304 60.5327 15.0363C60.6119 16.8096 60.7589 18.5771 60.8663 20.3475C61.8642 20.3475 62.8592 20.3475 63.8571 20.3504C63.5744 18.3438 63.9221 16.27 63.3737 14.3042C63.091 13.2746 61.9885 13.0442 61.1292 12.7875C61.768 12.4375 62.5878 12.4054 63.0514 11.7638C63.7242 10.8829 63.7723 9.7075 63.7751 8.63417C63.7638 7.38 63.7921 6.00042 63.0203 4.9475C62.4041 4.0725 61.2507 3.94417 60.284 3.94417C57.1659 3.94125 54.0451 3.94417 50.9271 3.94417Z" fill="black"/>
<path d="M68.4875 0.1875H91.0317C91.0317 8.15875 91.0317 16.1329 91.0317 24.1042H68.4875C68.4875 16.1329 68.4875 8.15875 68.4875 0.1875ZM72.5413 3.78667C72.5299 4.76083 72.5299 5.73792 72.5356 6.71208C73.2564 6.72667 73.9773 6.72667 74.6981 6.72083C74.7123 10.3375 74.7123 13.9542 74.6981 17.5708C73.9773 17.565 73.2593 17.565 72.5384 17.5738C72.5299 18.5508 72.5271 19.5279 72.5413 20.505C77.0868 20.5196 81.6296 20.5196 86.1752 20.505C86.1978 18.5713 86.1836 16.6375 86.1836 14.7038C85.1971 14.695 84.2105 14.695 83.2239 14.7067C83.2211 15.6604 83.2211 16.6142 83.2239 17.5679C81.426 17.5708 79.6282 17.5563 77.8303 17.5767C77.802 16.1446 77.8218 14.7096 77.8162 13.2775C79.2296 13.2775 80.643 13.2775 82.0564 13.2775C82.0564 12.3471 82.0564 11.4167 82.0564 10.4863C80.643 10.4863 79.2296 10.4863 77.8162 10.4863C77.8162 9.23208 77.8133 7.97792 77.819 6.72375C79.5716 6.72667 81.3214 6.72667 83.0741 6.72375C83.0684 7.55792 83.0684 8.39208 83.0713 9.22917C84.0409 9.22917 85.0105 9.22917 85.9801 9.22917C85.9773 7.415 85.9829 5.60083 85.9773 3.78667C81.4967 3.77208 77.019 3.77208 72.5413 3.78667Z" fill="white"/>
<path d="M91.0315 0.1875H114V24.1042H91.0315C91.0315 16.1329 91.0315 8.15875 91.0315 0.1875ZM96.1566 3.94417C96.1566 9.41292 96.1566 14.8788 96.1566 20.3475C98.7997 20.3417 101.44 20.3592 104.083 20.3388C105.711 20.3067 107.608 19.9946 108.589 18.4896C109.734 16.5996 109.562 14.2867 109.762 12.1546C109.559 10.0196 109.74 7.69792 108.589 5.80208C107.676 4.39333 105.929 4.02292 104.394 3.96458C101.649 3.91792 98.9014 3.95583 96.1566 3.94417Z" fill="black"/>
<path d="M29.084 3.78391C32.7392 3.77516 36.3914 3.77516 40.0437 3.78391C40.0579 4.76099 40.0579 5.74099 40.0466 6.72099C38.7547 6.72974 37.4628 6.72391 36.1709 6.72391C36.1766 10.3377 36.1766 13.9543 36.1709 17.5681C37.4628 17.5681 38.7547 17.5622 40.0494 17.5739C40.055 18.551 40.0579 19.531 40.0437 20.5081C36.3914 20.5168 32.7392 20.5168 29.0869 20.5081C29.0727 19.5281 29.0727 18.551 29.084 17.571C30.3759 17.5622 31.6678 17.5681 32.9596 17.5681C32.954 13.9543 32.954 10.3377 32.9596 6.72391C31.6678 6.72391 30.3759 6.72974 29.084 6.72099C29.0727 5.74099 29.0727 4.76391 29.084 3.78391Z" fill="black"/>
<path d="M72.5413 3.78633C77.019 3.77174 81.4967 3.77174 85.9773 3.78633C85.9829 5.6005 85.9773 7.41466 85.9801 9.22883C85.0105 9.22883 84.0409 9.22883 83.0713 9.22883C83.0685 8.39175 83.0685 7.55758 83.0741 6.72341C81.3215 6.72633 79.5717 6.72633 77.819 6.72341C77.8133 7.97758 77.8162 9.23175 77.8162 10.4859C79.2296 10.4859 80.643 10.4859 82.0565 10.4859C82.0565 11.4163 82.0565 12.3467 82.0565 13.2772C80.643 13.2772 79.2296 13.2772 77.8162 13.2772C77.8218 14.7092 77.802 16.1442 77.8303 17.5763C79.6282 17.5559 81.4261 17.5705 83.2239 17.5676C83.2211 16.6138 83.2211 15.6601 83.2239 14.7063C84.2105 14.6947 85.1971 14.6947 86.1837 14.7034C86.1837 16.6372 86.1978 18.5709 86.1752 20.5047C81.6296 20.5193 77.0868 20.5193 72.5413 20.5047C72.5271 19.5276 72.53 18.5505 72.5384 17.5734C73.2593 17.5647 73.9773 17.5647 74.6982 17.5705C74.7123 13.9538 74.7123 10.3372 74.6982 6.7205C73.9773 6.72633 73.2565 6.72633 72.5356 6.71175C72.53 5.73758 72.53 4.7605 72.5413 3.78633Z" fill="black"/>
<path d="M2.31372 3.941C3.34835 3.94683 4.38298 3.941 5.4176 3.94391C6.07343 8.3685 6.79428 12.7872 7.5547 17.1943C7.68191 16.8647 7.79498 16.5322 7.87131 16.1852C8.61194 12.446 9.40629 8.71558 10.1639 4.97641C10.2572 4.59141 10.3646 4.011 10.8395 3.97016C11.6762 3.91475 12.5187 3.91766 13.3554 3.97016C14.0395 4.29683 13.9547 5.236 14.1413 5.88058C14.961 9.65183 15.5914 13.4785 16.5328 17.2147C17.3695 12.8106 17.9773 8.36266 18.7349 3.94391C19.6847 3.94391 20.6345 3.94683 21.5872 3.941C20.5328 9.00725 19.6027 14.1056 18.6049 19.1835C18.5059 19.586 18.4861 20.0731 18.0989 20.3093C17.0218 20.4639 15.9137 20.4522 14.8338 20.3181C14.455 20.076 14.4324 19.586 14.325 19.1893C13.5391 15.456 12.8409 11.7022 11.9957 7.98058C11.8487 8.26933 11.7526 8.58141 11.6989 8.90225C11.0204 12.3702 10.2798 15.8264 9.59851 19.2943C9.49957 19.7172 9.36954 20.3764 8.82678 20.3589C7.82891 20.4289 6.81407 20.4697 5.82467 20.3064C5.27626 19.9156 5.38651 19.1456 5.20842 18.5622C4.23315 13.6914 3.32573 8.80308 2.31372 3.941Z" fill="white"/>
<path d="M50.9271 3.94466C54.0451 3.94466 57.166 3.94174 60.284 3.94466C61.2508 3.94466 62.4041 4.07299 63.0204 4.94799C63.7921 6.00091 63.7638 7.38049 63.7752 8.63466C63.7723 9.70799 63.7243 10.8834 63.0515 11.7642C62.5879 12.4059 61.7681 12.438 61.1292 12.788C61.9886 13.0447 63.0911 13.2751 63.3737 14.3047C63.9221 16.2705 63.5744 18.3442 63.8571 20.3509C62.8593 20.348 61.8642 20.348 60.8663 20.348C60.7589 18.5776 60.6119 16.8101 60.5328 15.0367C60.5469 14.3309 59.8063 13.873 59.1843 13.9342C57.4798 13.9226 55.7752 13.9372 54.0706 13.9313C54.0706 16.0692 54.0706 18.2101 54.0706 20.348C53.0218 20.348 51.9731 20.348 50.9271 20.348C50.9271 14.8792 50.9271 9.41341 50.9271 3.94466ZM54.0706 6.63966C54.0706 8.22341 54.0706 9.80716 54.0706 11.3909C55.9504 11.3647 57.8359 11.4492 59.713 11.3501C60.7222 11.2888 60.7363 10.0376 60.7759 9.25591C60.7448 8.39549 60.9002 7.25216 60.1229 6.68341C58.1101 6.57549 56.0889 6.67174 54.0706 6.63966Z" fill="white"/>
<path d="M96.1567 3.94498C98.9016 3.95665 101.649 3.91873 104.394 3.9654C105.929 4.02373 107.676 4.39415 108.589 5.8029C109.74 7.69873 109.559 10.0204 109.762 12.1554C109.562 14.2875 109.734 16.6004 108.589 18.4904C107.608 19.9954 105.711 20.3075 104.083 20.3396C101.44 20.36 98.7998 20.3425 96.1567 20.3483C96.1567 14.8796 96.1567 9.41373 96.1567 3.94498ZM99.3002 6.63998C99.3002 10.3121 99.3002 13.9812 99.3002 17.6533C100.909 17.6504 102.517 17.6562 104.128 17.6562C104.9 17.6708 105.836 17.4608 106.198 16.6675C106.738 15.4396 106.605 14.0571 106.65 12.7475C106.591 11.1083 106.817 9.39915 106.283 7.82415C106.042 7.01915 105.174 6.63706 104.414 6.64581C102.709 6.62831 101.005 6.64873 99.3002 6.63998Z" fill="white"/>
<path d="M54.0706 6.63994C56.0889 6.67202 58.1101 6.57577 60.1228 6.68369C60.9002 7.25244 60.7447 8.39577 60.7758 9.25619C60.7363 10.0379 60.7221 11.2891 59.713 11.3504C57.8359 11.4495 55.9504 11.3649 54.0706 11.3912C54.0706 9.80744 54.0706 8.22369 54.0706 6.63994Z" fill="black"/>
<path d="M99.3002 6.63824C101.005 6.64699 102.709 6.62657 104.414 6.64407C105.174 6.63532 106.042 7.0174 106.282 7.8224C106.817 9.3974 106.591 11.1066 106.65 12.7457C106.605 14.0553 106.738 15.4378 106.198 16.6657C105.836 17.4591 104.9 17.6691 104.128 17.6545C102.517 17.6545 100.909 17.6487 99.3002 17.6516C99.3002 13.9795 99.3002 10.3103 99.3002 6.63824Z" fill="black"/>
</g>
<defs>
<clipPath id="clip0">
<rect width="113.357" height="23.9167" fill="white" transform="translate(0.643066 0.1875)"/>
</clipPath>
</defs>
</svg>