<svg width="115" height="21" viewBox="0 0 115 21" fill="none" xmlns="http://www.w3.org/2000/svg">
<g clip-path="url(#clip0)">
<path d="M12.6288 7.92826C12.6288 4.31431 10.089 1.46484 6.34969 1.46484C2.68098 1.46484 0 4.31431 0 7.85876C0 11.3337 2.61043 14.1832 6.20859 14.1832C6.77301 14.1832 7.40798 14.0442 7.90184 13.7662H7.97239L3.73926 19.8821H5.85583L10.4417 13.2102C11.5 11.6117 12.6288 10.0132 12.6288 7.92826ZM10.7945 7.78926C10.7945 10.2912 9.03067 12.5152 6.34969 12.5152C3.73926 12.5152 1.90491 10.3607 1.90491 7.85876C1.90491 5.35679 3.66871 3.20232 6.34969 3.20232C8.88957 3.13282 10.7945 5.28729 10.7945 7.78926ZM23.635 3.41082V1.81234H13.3344V3.48032H17.5675V19.9516H19.4018V3.41082H23.635ZM44.3773 10.8472C44.3773 5.63479 39.9325 1.46484 34.6411 1.46484C29.2791 1.46484 24.9049 5.63479 24.9049 10.9167C24.9049 16.0597 29.4908 20.2296 34.6411 20.2296C39.862 20.2296 44.3773 16.0597 44.3773 10.8472ZM42.5429 10.8472C42.5429 15.0867 38.9448 18.5616 34.6411 18.5616C30.408 18.5616 26.7393 15.0867 26.7393 10.9167C26.7393 6.60778 30.2669 3.06332 34.6411 3.06332C38.9448 3.13282 42.5429 6.60778 42.5429 10.8472ZM58.6994 13.9052C58.6994 10.4997 56.089 7.58076 52.5613 7.58076C51.4325 7.58076 50.4448 7.92826 49.4571 8.41475L50.3742 3.41082H57.1472V1.81234H48.8221L47.1288 10.7777L48.5399 11.2642C49.4571 10.0827 50.7975 9.17924 52.3497 9.17924C54.9601 9.17924 56.7239 11.4727 56.7239 13.9052C56.7239 16.3376 54.8896 18.5616 52.3497 18.5616C49.8098 18.5616 48.1166 16.5461 47.9049 14.1832H46.0706C46.4233 16.7546 47.6932 18.9091 50.2331 19.8126C50.9386 20.0906 51.6442 20.2296 52.3497 20.2296C55.9478 20.2296 58.6994 17.3106 58.6994 13.9052ZM80.2883 19.8821V1.81234H77.4663L70.7638 17.2411L63.9908 1.81234H61.1687V19.9516H63.0031V3.75831H63.0736L69.9172 19.8821H71.4693L78.3834 3.75831H78.454V19.8821H80.2883ZM97.6442 6.53828H95.8804V8.90125H95.8098C94.6104 7.09427 92.635 6.19078 90.5184 6.19078C86.4969 6.19078 83.181 9.17924 83.181 13.2102C83.181 17.2411 86.4264 20.2991 90.5184 20.2991C92.635 20.2991 94.6104 19.3956 95.8098 17.6581H95.8804V20.0211H97.6442V6.53828ZM95.9509 13.2102C95.9509 16.1987 93.5521 18.7006 90.5184 18.7006C87.3436 18.7006 84.9448 16.4071 84.9448 13.2797C84.9448 10.1522 87.273 7.71976 90.5184 7.71976C93.6227 7.71976 95.9509 10.2217 95.9509 13.2102ZM34.5 11.8897H30.1963C29.7025 11.8897 29.3497 11.5422 29.3497 11.0557C29.3497 10.5692 29.7025 10.2217 30.1963 10.2217H33.6534V4.9398C33.6534 4.4533 34.0061 4.10581 34.5 4.10581C34.9939 4.10581 35.3466 4.4533 35.3466 4.9398V11.0557C35.3466 11.5422 34.9233 11.8897 34.5 11.8897ZM114.294 15.9902C112.883 18.7006 110.696 20.2296 107.521 20.2296C103.5 20.2296 100.184 17.2411 100.184 13.2102C100.184 9.24874 103.5 6.12128 107.521 6.12128C110.485 6.12128 113.166 7.78926 114.294 10.4997H112.39C111.472 8.76225 109.638 7.65026 107.592 7.65026C104.488 7.65026 101.948 10.0132 101.948 13.1407C101.948 16.2682 104.417 18.6311 107.592 18.6311C109.638 18.6311 111.472 17.7276 112.39 15.9207H114.294V15.9902Z" fill="black"/>
</g>
<defs>
<clipPath id="clip0">
<rect width="115" height="21" fill="white"/>
</clipPath>
</defs>
</svg>