<svg width="87" height="22" viewBox="0 0 87 22" fill="none" xmlns="http://www.w3.org/2000/svg">
<g clip-path="url(#clip0)">
<path d="M3.33672 21.7548H0V0.218893L3.33672 0.437428V21.7548Z" fill="black"/>
<path d="M8.79788 21.7548H5.46114V6.39546L8.79788 6.58673V21.7548ZM7.1295 1.72196C8.17898 1.72196 9.04005 2.59653 9.04005 3.66238C9.04005 4.72838 8.17898 5.60296 7.1295 5.60296C6.08004 5.60296 5.21897 4.72838 5.21897 3.66238C5.21897 2.59653 6.08004 1.72196 7.1295 1.72196Z" fill="black"/>
<path d="M16.7629 9.48342V12.8723H14.2603V21.7398H10.9236V4.89203C10.9236 2.32312 13.0224 0 15.4981 0C16.3322 0 17.005 0.24609 17.1665 0.355284L17.0319 3.6075H15.4981C14.8253 3.6075 14.2603 4.18147 14.2603 4.89203V9.48342H16.7629Z" fill="black"/>
<path d="M21.4497 12.4351H23.9523V10.8501C23.9523 10.1394 23.3872 9.56556 22.7144 9.56556C22.0147 9.56556 21.4497 10.1394 21.4497 10.8501V12.4351ZM18.1129 10.8501C18.1129 8.28096 20.158 6.17667 22.7144 6.17667C25.2439 6.17667 27.2889 8.28096 27.2889 10.8501V14.1297C27.2889 15.0862 26.5355 15.824 25.6207 15.824H21.4497V17.2999C21.4497 18.0103 22.0147 18.5844 22.7144 18.5844H25.9167L26.0243 21.4541L23.0105 21.9186C20.1042 22.4106 18.1129 19.8688 18.1129 17.2999V10.8501Z" fill="black"/>
<path d="M30.1423 21.7548V0.355497H32.2952V6.85994C32.8872 6.66866 33.8289 6.58673 34.4747 6.58673C36.7621 6.58673 38.538 8.69111 38.538 11.0689V21.7548H36.4391V11.0689C36.4391 9.89362 35.4973 8.9644 34.3402 8.9644H32.2952V21.7548H30.1423Z" fill="black"/>
<path d="M46.4148 17.6279V13.9383H44.3427C43.1858 13.9383 42.2708 14.8676 42.2708 16.0426V17.6279C42.2708 18.8029 43.1858 19.7594 44.3427 19.7594C45.5 19.7594 46.4148 18.8029 46.4148 17.6279ZM46.4148 10.7133C46.4148 9.48345 45.8496 8.49953 44.3159 8.66366H44.3427C43.4816 8.69092 42.3785 8.80024 41.4635 8.85489C41.4367 8.0623 41.4097 7.76168 41.3829 7.1605C42.1093 6.88715 43.1588 6.6138 44.0469 6.58654C46.7377 6.53187 48.5138 8.74562 48.5138 11.1232V17.6279C48.5138 19.9781 46.6571 21.9186 44.3427 21.9186C42.0287 21.9186 40.1181 19.9781 40.1181 17.6279V16.2887C40.1181 13.9383 41.7057 12.1619 44.3427 12.1619C45.3385 12.1619 45.8496 12.2712 46.4148 12.435V10.7133Z" fill="black"/>
<path d="M54.5428 6.58663C56.8572 6.58663 58.7676 8.49962 58.7676 10.8774V11.1507C57.9335 11.1781 57.2607 11.1781 56.6419 11.2054V10.8774C56.6419 9.72957 55.6999 8.77307 54.5428 8.77307C53.4127 8.77307 52.4976 9.72957 52.4976 10.8774V17.7099C52.4976 18.9124 53.4127 19.8143 54.5428 19.8143C55.6731 19.8143 56.6149 18.9397 56.6419 17.7918C57.6912 17.8739 58.6869 17.9285 58.7676 17.9285C58.6599 20.1969 56.7764 22.0007 54.5428 22.0007C52.2288 22.0007 50.3449 20.0876 50.3449 17.7099V10.8774C50.3449 8.49962 52.2288 6.58663 54.5428 6.58663Z" fill="black"/>
<path d="M67.2476 21.7548L63.1574 14.5123C62.7537 13.8019 62.7537 13.7198 63.2381 12.8725L66.8439 6.80541H69.2928L65.2293 13.8019L69.6156 21.7548H67.2476ZM62.6192 0.410165V21.7548H60.4664V0.410165H62.6192Z" fill="black"/>
<path d="M72.2231 13.2001H76.3672V10.9043C76.3672 9.72921 75.4253 8.77272 74.2952 8.77272C73.1381 8.77272 72.2231 9.72921 72.2231 10.9043V13.2001ZM70.0704 10.9043C70.0704 8.5267 71.9541 6.58627 74.2952 6.58627C76.6092 6.58627 78.4931 8.5267 78.4931 10.9043V14.266C78.4931 14.8947 78.0086 15.3592 77.4167 15.3592H72.2231V17.6821C72.2231 18.8573 73.1381 19.814 74.2952 19.814H77.013C77.0398 20.5244 77.0668 21.0166 77.1207 21.5083L74.5373 21.9183C71.9003 22.3829 70.0704 20.0599 70.0704 17.6821V10.9043Z" fill="black"/>
<path d="M82.5333 21.7548H80.3804V11.0961C80.3804 8.71837 82.2103 6.5048 84.9012 6.55932C85.8161 6.58673 86.3812 6.80541 87.0002 7.10602C86.9732 7.76188 86.9464 8.30851 86.9195 8.80044L84.5783 8.74581C83.4481 8.74581 82.5333 9.97568 82.5333 11.0961V21.7548Z" fill="black"/>
</g>
<defs>
<clipPath id="clip0">
<rect width="87" height="22" fill="white"/>
</clipPath>
</defs>
</svg>